<svg width="23" height="23" viewBox="0 0 23 23" fill="none" xmlns="http://www.w3.org/2000/svg">
<path fill-rule="evenodd" clip-rule="evenodd" d="M20.5957 5.21636V7.95925C20.6047 8.70503 20.3231 9.42392 19.8129 9.95773C19.3027 10.4915 18.6056 10.7966 17.875 10.8057H16.7597C16.3819 10.7644 16.0953 10.4389 16.0953 10.0509C16.0953 9.663 16.3819 9.33749 16.7597 9.2962H17.8412C18.1833 9.29393 18.5104 9.15243 18.7499 8.90306C18.9894 8.6537 19.1216 8.31709 19.1171 7.96788V5.21636C19.108 4.50092 18.5421 3.92321 17.8412 3.91392H15.1459C14.4413 3.91392 13.87 4.49704 13.87 5.21636V9.3307C13.8563 9.7479 13.5185 10.0774 13.1096 10.0725C12.9131 10.068 12.7266 9.98338 12.5916 9.83752C12.4567 9.69166 12.3846 9.49671 12.3914 9.2962V5.21636C12.3892 4.4691 12.6784 3.75167 13.1952 3.22247C13.712 2.69327 14.4139 2.39583 15.1459 2.39584H17.8412C19.3507 2.43242 20.5645 3.67536 20.5957 5.21636ZM7.85411 2.39584H5.15877C3.63668 2.40525 2.40506 3.66254 2.39583 5.21636V7.96788C2.4051 9.52028 3.63805 10.7751 5.15877 10.7798H7.85411C8.58611 10.7821 9.28889 10.4868 9.80729 9.95925C10.3257 9.43167 10.617 8.71514 10.617 7.96788V5.21636C10.6124 3.66059 9.37811 2.40057 7.85411 2.39584ZM9.12996 7.96788C9.13447 8.31709 9.00231 8.6537 8.7628 8.90306C8.52328 9.15242 8.19621 9.29393 7.85411 9.2962H5.15877C4.81158 9.30331 4.47655 9.16565 4.231 8.91498C3.98545 8.66432 3.8506 8.3223 3.85757 7.96788V5.21636C3.8575 4.8664 3.99539 4.53114 4.24017 4.28612C4.48495 4.04111 4.81602 3.90696 5.15877 3.91392H7.85411C8.55682 3.91862 9.12535 4.499 9.12996 5.21636V7.96788ZM15.1459 12.2202H17.8412C19.362 12.2249 20.5949 13.4797 20.6042 15.0321V17.7836C20.5949 19.3375 19.3633 20.5948 17.8412 20.6042H15.1459C13.6252 20.5947 12.396 19.3361 12.3914 17.7836V15.0321C12.3914 13.4792 13.6246 12.2202 15.1459 12.2202ZM18.7459 18.7072C18.9857 18.4624 19.1194 18.1298 19.1171 17.7836V15.0321C19.1171 14.6867 18.9827 14.3554 18.7434 14.1112C18.5041 13.8669 18.1796 13.7297 17.8412 13.7297H15.1459C14.4413 13.7297 13.87 14.3128 13.87 15.0321V17.7836C13.8678 18.1298 14.0015 18.4624 14.2412 18.7072C14.481 18.9519 14.8068 19.0884 15.1459 19.0861H17.8412C18.1803 19.0884 18.5061 18.9519 18.7459 18.7072ZM2.39583 17.775V15.0321C2.39583 14.2849 2.68719 13.5684 3.20559 13.0408C3.72398 12.5132 4.42677 12.2179 5.15877 12.2202H6.26563C6.54864 12.1893 6.8241 12.326 6.97509 12.5723C7.12607 12.8186 7.12607 13.1313 6.97509 13.3776C6.8241 13.6239 6.54864 13.7606 6.26563 13.7297H5.15877C4.45275 13.7297 3.87911 14.3114 3.87447 15.0321V17.7492C3.89242 18.4641 4.45833 19.038 5.15877 19.0516H7.87101C8.21084 19.0539 8.53754 18.9177 8.77864 18.6732C9.01973 18.4287 9.15531 18.0961 9.15531 17.7492V13.6693C9.1002 13.3646 9.23201 13.0564 9.48833 12.8905C9.74465 12.7245 10.074 12.7343 10.3205 12.9151C10.5669 13.096 10.6809 13.4116 10.6086 13.7124V17.775C10.6086 19.3328 9.37158 20.5956 7.84566 20.5956H5.15877C3.64603 20.5635 2.42722 19.3193 2.39583 17.775Z" fill="#AAA6B5"/>
</svg>
